<?xml version="1.0" standalone="no"?>
<!DOCTYPE svg PUBLIC "-//W3C//DTD SVG 20010904//EN"
 "http://www.w3.org/TR/2001/REC-SVG-20010904/DTD/svg10.dtd">
<svg version="1.0" xmlns="http://www.w3.org/2000/svg"
 width="260.000000pt" height="260.000000pt" viewBox="0 0 260.000000 260.000000"
 preserveAspectRatio="xMidYMid meet">
<metadata>
Created by potrace 1.11, written by Peter Selinger 2001-2013
</metadata>
<g transform="translate(0.000000,260.000000) scale(0.100000,-0.100000)"
fill="#000000" stroke="none">
<path d="M1065 2510 c-205 -42 -367 -116 -525 -240 -60 -47 -168 -155 -205
-205 -17 -22 -32 -42 -35 -45 -22 -20 -113 -186 -145 -265 -22 -54 -62 -199
-72 -260 -10 -60 -10 -333 -1 -390 21 -128 57 -242 111 -350 63 -125 67 -132
82 -145 8 -7 15 -17 15 -22 0 -21 141 -177 230 -253 95 -82 275 -179 405 -219
139 -43 173 -48 345 -52 153 -3 242 9 375 48 39 11 76 25 84 32 8 6 15 10 15
8 1 -2 12 1 26 6 14 5 27 9 30 9 3 0 24 12 47 26 24 15 45 27 48 27 6 0 113
71 149 99 29 23 167 160 194 194 173 212 273 494 273 767 0 108 -5 172 -16
230 -3 14 -7 35 -9 47 -31 159 -125 363 -234 503 -64 82 -206 213 -290 267
-82 54 -233 130 -268 136 -11 1 -23 5 -29 8 -16 9 -93 28 -175 44 -106 19
-314 17 -425 -5z m415 -528 c0 -7 -65 -151 -195 -430 -19 -40 -34 -75 -35 -77
0 -3 -13 -31 -29 -63 -16 -31 -35 -73 -43 -92 l-15 -35 67 0 68 0 32 70 c18
39 38 84 45 100 7 17 32 70 54 118 23 49 41 92 41 98 0 5 95 9 235 9 129 0
235 -2 235 -4 0 -5 -26 -67 -61 -144 -35 -77 -85 -190 -93 -212 -3 -8 -10 -22
-16 -30 -9 -15 -70 -149 -70 -155 0 -2 -15 -36 -34 -77 -52 -112 -86 -188 -86
-192 0 -2 -17 -42 -39 -88 -21 -45 -49 -107 -61 -135 -12 -29 -28 -53 -34 -54
-50 -4 -447 -1 -452 3 -5 6 69 169 161 353 l50 100 78 40 c57 29 73 41 60 45
-10 3 -174 6 -365 5 -192 0 -348 3 -348 7 0 5 18 48 41 96 50 106 61 133 65
152 2 8 8 16 13 18 6 2 11 9 11 17 0 7 24 64 54 126 61 128 112 240 114 252 1
4 20 43 42 87 22 44 37 80 33 80 -5 0 -1 5 7 10 18 12 470 14 470 2z"/>
</g>
</svg>
