<?xml version="1.0" encoding="utf-8"?>
<!-- Generator: Adobe Illustrator 17.0.0, SVG Export Plug-In . SVG Version: 6.00 Build 0)  -->
<!DOCTYPE svg PUBLIC "-//W3C//DTD SVG 1.1//EN" "http://www.w3.org/Graphics/SVG/1.1/DTD/svg11.dtd">
<svg version="1.1" id="Layer_1" xmlns="http://www.w3.org/2000/svg" xmlns:xlink="http://www.w3.org/1999/xlink" x="0px" y="0px"
	 width="36px" height="13px" viewBox="0 0 36 13" enable-background="new 0 0 36 13" xml:space="preserve">
<g>
	<g>
		<path d="M16.383,3.132h-1.754v6.722h4.538V8.341h-2.785V3.132z M25.16,3.132h-1.754v4.102c0,0.761-0.347,1.196-1.089,1.196
			c-0.742,0-1.089-0.435-1.089-1.196V3.132h-1.754v4.122c0,1.809,1.204,2.698,2.843,2.698c1.638,0,2.842-0.89,2.842-2.698V3.132z
			 M28.263,3.013l-3.189,6.84h1.715l0.241-0.573c0,0,2.476,0,2.467,0l0.25,0.573h1.812l-3.18-6.84
			C28.35,2.944,28.292,2.944,28.263,3.013z M27.588,7.936l0.655-1.562l0.674,1.562H27.588z M34.497,6.453v0.929h-1.108l2.274-4.567
			h-1.734l-2.274,4.567v1.542h2.842v0.929H36v-3.4H34.497z"/>
	</g>
</g>
<ellipse cx="6.343" cy="6.5" rx="6.343" ry="6.5"/>
<polygon fill="#FFFFFF" points="4.91,2.836 2.861,7.348 6.76,7.348 5.851,7.839 4.733,10.241 7.198,10.241 9.75,4.473 7.299,4.473 
	6.379,6.539 5.688,6.539 7.375,2.836 "/>
</svg>
